<?xml version="1.0" standalone="no"?><!DOCTYPE svg PUBLIC "-//W3C//DTD SVG 1.1//EN" "http://www.w3.org/Graphics/SVG/1.1/DTD/svg11.dtd"><svg t="1595085149918" class="icon" viewBox="0 0 1024 1024" version="1.1" xmlns="http://www.w3.org/2000/svg" p-id="1888" xmlns:xlink="http://www.w3.org/1999/xlink" width="200" height="200"><defs><style type="text/css"></style></defs><path d="M1013.715146 10.284854a34.603335 34.603335 0 0 0-49.234275 0l-62.239556 62.007318a73.619176 73.619176 0 0 0-17.650023-2.554608H532.055303a69.671144 69.671144 0 0 0-49.234275 20.436869L20.436869 552.558592a69.671144 69.671144 0 0 0 0 97.771839l352.303752 353.2327a69.671144 69.671144 0 0 0 98.46855 0L933.59333 540.946735a69.671144 69.671144 0 0 0 20.436869-49.234275V139.408708a75.477073 75.477073 0 0 0-1.857897-17.88226l62.007318-62.007319a34.835572 34.835572 0 0 0-0.464474-49.234275z m-129.356091 481.427606L421.974896 954.328856 69.671144 601.792867 532.055303 139.408708H836.053728l-106.59685 106.364613a114.260676 114.260676 0 0 0-53.879018-13.469754 116.118573 116.118573 0 1 0 116.118573 116.118573 114.492913 114.492913 0 0 0-13.701991-53.182307l106.364613-106.59685z m-162.566003-143.29032a46.447429 46.447429 0 1 1-46.447429-46.447429 46.447429 46.447429 0 0 1 46.679666 46.447429z" p-id="1889"></path></svg>